<svg width="20" height="20" viewBox="0 0 20 20" fill="none" xmlns="http://www.w3.org/2000/svg">
<path d="M13.738 5.422C13.5719 5.422 13.4095 5.47127 13.2713 5.56357C13.1332 5.65587 13.0255 5.78706 12.9619 5.94055C12.8984 6.09404 12.8817 6.26293 12.9141 6.42588C12.9466 6.58882 13.0266 6.73849 13.144 6.85597C13.2615 6.97345 13.4112 7.05345 13.5741 7.08586C13.7371 7.11827 13.906 7.10164 14.0595 7.03806C14.2129 6.97448 14.3441 6.86682 14.4364 6.72868C14.5287 6.59054 14.578 6.42814 14.578 6.262C14.578 6.03922 14.4895 5.82556 14.332 5.66803C14.1744 5.5105 13.9608 5.422 13.738 5.422ZM16.958 7.116C16.9444 6.53521 16.8356 5.96058 16.636 5.415C16.458 4.94819 16.181 4.52549 15.824 4.176C15.4774 3.8172 15.0537 3.54192 14.585 3.371C14.0409 3.16531 13.4656 3.05405 12.884 3.042C12.142 3 11.904 3 10 3C8.096 3 7.858 3 7.116 3.042C6.53441 3.05405 5.95914 3.16531 5.415 3.371C4.94717 3.54365 4.52385 3.81869 4.176 4.176C3.8172 4.52262 3.54192 4.94631 3.371 5.415C3.16531 5.95914 3.05405 6.53441 3.042 7.116C3 7.858 3 8.096 3 10C3 11.904 3 12.142 3.042 12.884C3.05405 13.4656 3.16531 14.0409 3.371 14.585C3.54192 15.0537 3.8172 15.4774 4.176 15.824C4.52385 16.1813 4.94717 16.4563 5.415 16.629C5.95914 16.8347 6.53441 16.946 7.116 16.958C7.858 17 8.096 17 10 17C11.904 17 12.142 17 12.884 16.958C13.4656 16.946 14.0409 16.8347 14.585 16.629C15.0537 16.4581 15.4774 16.1828 15.824 15.824C16.1826 15.4758 16.4598 15.0527 16.636 14.585C16.8356 14.0394 16.9444 13.4648 16.958 12.884C16.958 12.142 17 11.904 17 10C17 8.096 17 7.858 16.958 7.116ZM15.698 12.8C15.6929 13.2443 15.6124 13.6846 15.46 14.102C15.3482 14.4066 15.1687 14.6819 14.935 14.907C14.708 15.1384 14.4333 15.3175 14.13 15.432C13.7126 15.5844 13.2723 15.6649 12.828 15.67C12.128 15.705 11.869 15.712 10.028 15.712C8.187 15.712 7.928 15.712 7.228 15.67C6.76662 15.6786 6.30722 15.6076 5.87 15.46C5.58005 15.3397 5.31795 15.161 5.1 14.935C4.86766 14.7101 4.69039 14.4346 4.582 14.13C4.4111 13.7066 4.31631 13.2564 4.302 12.8C4.302 12.1 4.26 11.841 4.26 10C4.26 8.159 4.26 7.9 4.302 7.2C4.30514 6.74574 4.38807 6.29556 4.547 5.87C4.67023 5.57454 4.85939 5.31116 5.1 5.1C5.31267 4.85932 5.5755 4.66817 5.87 4.54C6.29669 4.38603 6.7464 4.30556 7.2 4.302C7.9 4.302 8.159 4.26 10 4.26C11.841 4.26 12.1 4.26 12.8 4.302C13.2443 4.3071 13.6846 4.38757 14.102 4.54C14.4201 4.65806 14.7056 4.84999 14.935 5.1C15.1644 5.31502 15.3436 5.57791 15.46 5.87C15.6156 6.29625 15.6961 6.74625 15.698 7.2C15.733 7.9 15.74 8.159 15.74 10C15.74 11.841 15.733 12.1 15.698 12.8ZM10 6.409C9.29007 6.41038 8.59647 6.62217 8.00686 7.01759C7.41724 7.41302 6.95806 7.97434 6.68734 8.63063C6.41662 9.28692 6.34651 10.0087 6.48586 10.7049C6.6252 11.401 6.96777 12.0402 7.47025 12.5417C7.97274 13.0432 8.61261 13.3845 9.309 13.5225C10.0054 13.6605 10.7271 13.589 11.3828 13.317C12.0386 13.045 12.599 12.5847 12.9933 11.9943C13.3876 11.4039 13.598 10.7099 13.598 10C13.5989 9.52757 13.5064 9.05962 13.3259 8.62307C13.1453 8.18651 12.8802 7.78997 12.5458 7.45624C12.2114 7.1225 11.8144 6.85817 11.3775 6.67845C10.9406 6.49873 10.4724 6.40715 10 6.409ZM10 12.331C9.53897 12.331 9.0883 12.1943 8.70497 11.9382C8.32163 11.682 8.02286 11.318 7.84644 10.892C7.67001 10.4661 7.62385 9.99741 7.71379 9.54524C7.80373 9.09307 8.02574 8.67773 8.35173 8.35173C8.67773 8.02574 9.09307 7.80373 9.54524 7.71379C9.99741 7.62385 10.4661 7.67001 10.892 7.84644C11.318 8.02286 11.682 8.32163 11.9382 8.70497C12.1943 9.0883 12.331 9.53897 12.331 10C12.331 10.3061 12.2707 10.6092 12.1536 10.892C12.0364 11.1748 11.8647 11.4318 11.6483 11.6483C11.4318 11.8647 11.1748 12.0364 10.892 12.1536C10.6092 12.2707 10.3061 12.331 10 12.331Z" fill="white"/>
</svg>
