<svg width="20" height="20" viewBox="0 0 20 20" fill="none" xmlns="http://www.w3.org/2000/svg">
<path d="M18.5873 5.74492C18.7131 5.31516 18.5873 5 17.9926 5H16.0227C15.5215 5 15.2924 5.27264 15.1667 5.57209C15.1667 5.57209 14.1651 8.08503 12.7458 9.71442C12.2877 10.1885 12.0784 10.3383 11.8287 10.3383C11.7038 10.3383 11.5224 10.1885 11.5224 9.75878V5.74492C11.5224 5.22921 11.3778 5 10.9601 5H7.8646C7.55201 5 7.36337 5.23845 7.36337 5.4658C7.36337 5.95379 8.073 6.06654 8.14576 7.44177V10.4251C8.14576 11.0786 8.03168 11.1978 7.78017 11.1978C7.11275 11.1978 5.48867 8.6756 4.52482 5.78835C4.33709 5.22736 4.14755 5.00092 3.64452 5.00092H1.6755C1.11228 5.00092 1 5.27357 1 5.57301C1 6.11091 1.66742 8.77264 4.10892 12.293C5.7366 14.6969 8.02809 16 10.1157 16C11.367 16 11.5215 15.7107 11.5215 15.2116V13.3946C11.5215 12.8161 11.6409 12.6996 12.0371 12.6996C12.3281 12.6996 12.8294 12.8512 13.998 14.0092C15.3328 15.3826 15.5538 15.9991 16.3039 15.9991H18.2729C18.8352 15.9991 19.1164 15.7098 18.9547 15.1386C18.7777 14.5702 18.14 13.7431 17.2938 12.7643C16.8339 12.2061 16.1467 11.6054 15.9374 11.305C15.6454 10.9177 15.7299 10.7468 15.9374 10.403C15.9383 10.4039 18.3376 6.92699 18.5873 5.74492Z" fill="white"/>
</svg>
