<svg width="670" height="260" viewBox="0 0 670 260" fill="none" xmlns="http://www.w3.org/2000/svg">
<path fill-rule="evenodd" clip-rule="evenodd" d="M669.22 234.95C668.535 235.415 667.625 235.22 667.189 234.515C662.464 226.876 658.194 218.994 654.763 210.619C654.635 210.307 654.515 210.004 654.399 209.712C653.974 208.639 653.6 207.698 653.066 206.854C652.623 206.153 652.816 205.203 653.497 204.732C654.178 204.26 655.089 204.445 655.532 205.145C656.234 206.254 656.741 207.539 657.176 208.64C657.279 208.9 657.377 209.149 657.473 209.383C660.821 217.558 665.004 225.288 669.671 232.832C670.107 233.537 669.905 234.485 669.22 234.95Z" fill="white"/>
<path fill-rule="evenodd" clip-rule="evenodd" d="M669.087 234.941C669.236 235.769 668.709 236.576 667.91 236.744C663.452 237.684 659.136 239.313 654.762 241.102C653.859 241.471 652.952 241.848 652.04 242.227C648.572 243.668 645.041 245.135 641.447 246.306C641.067 246.43 640.696 246.536 640.359 246.634L640.337 246.64C639.985 246.741 639.671 246.832 639.368 246.932C638.769 247.13 638.268 247.348 637.802 247.671C637.121 248.143 636.21 247.958 635.767 247.258C635.324 246.558 635.517 245.608 636.198 245.136C636.985 244.59 637.776 244.266 638.517 244.02C638.883 243.899 639.251 243.794 639.594 243.695L639.597 243.694C639.947 243.593 640.277 243.498 640.61 243.39C644.083 242.258 647.476 240.849 650.931 239.414C651.856 239.029 652.786 238.643 653.724 238.259C658.124 236.46 662.642 234.745 667.371 233.748C668.17 233.58 668.938 234.114 669.087 234.941Z" fill="white"/>
<path fill-rule="evenodd" clip-rule="evenodd" d="M74.2415 13.5547C74.4874 14.3457 74.0455 15.1864 73.2544 15.4323C57.7683 20.2461 44.8378 29.2984 31.4346 39.9924C30.4551 40.774 29.4494 41.5643 28.4282 42.3668C22.785 46.8014 16.667 51.6092 11.8667 57.3701C6.246 64.1156 2.55901 72.0287 3.71154 81.9603C6.3816 104.969 14.8601 130.053 27.4779 151.622C40.1055 173.208 56.7916 191.128 75.7832 200.008C91.198 207.215 108.92 210.169 126.931 211.371C139.243 212.193 151.587 212.193 163.389 212.193C168.882 212.194 174.258 212.194 179.459 212.277C236.17 213.182 292.893 212.063 349.554 209.115C360.182 208.562 370.789 207.814 381.391 207.067C411.662 204.931 441.89 202.799 472.428 205.225C483.704 206.12 495.013 206.837 506.335 207.556C530.72 209.103 555.164 210.653 579.458 213.994C585.396 214.81 591.244 215.755 597.06 216.694C607.944 218.452 618.716 220.192 629.758 221.041C630.622 221.107 631.477 221.167 632.325 221.226C640.06 221.766 647.175 222.263 654.331 227.402C658.409 230.33 661.442 231.5 666 231.5C666.829 231.5 667.5 232.171 667.5 233C667.5 233.828 666.829 234.5 666 234.5C660.684 234.5 657.051 233.048 652.581 229.838C646.149 225.219 639.883 224.774 632.068 224.218C631.24 224.159 630.394 224.099 629.528 224.032C618.373 223.175 607.371 221.399 596.4 219.628C590.614 218.694 584.836 217.762 579.05 216.966C554.865 213.64 530.608 212.102 506.283 210.559C494.933 209.84 483.569 209.119 472.191 208.215C441.896 205.809 411.995 207.918 381.789 210.048C371.144 210.799 360.461 211.552 349.71 212.111C292.985 215.062 236.193 216.183 179.411 215.276C174.307 215.195 168.983 215.195 163.518 215.194C151.665 215.194 139.143 215.193 126.731 214.364C108.564 213.152 90.4157 210.161 74.5126 202.725C54.7761 193.498 37.6943 175.028 24.8884 153.137C12.0727 131.229 3.45208 105.75 0.731537 82.3062C-0.543642 71.3175 3.59399 62.6119 9.56193 55.4497C14.5839 49.4227 20.9923 44.3903 26.6281 39.9645C27.6354 39.1735 28.618 38.4019 29.5636 37.6474C43.0239 26.9078 56.3173 17.5556 72.3639 12.5675C73.155 12.3216 73.9956 12.7636 74.2415 13.5547Z" fill="white"/>
</svg>
