<svg width="275" height="180" viewBox="0 0 275 180" fill="none" xmlns="http://www.w3.org/2000/svg">
<path fill-rule="evenodd" clip-rule="evenodd" d="M-60.3642 15.4588C-88.2527 15.6882 -116.137 15.9176 -144 15.9176C-144.828 15.9176 -145.5 15.246 -145.5 14.4176C-145.5 13.5892 -144.828 12.9176 -144 12.9176C-116.191 12.9176 -88.3372 12.6885 -60.4649 12.4593C5.17026 11.9194 70.9097 11.3787 136.422 13.8267C158.062 14.6353 179.694 16.6445 200.772 22.2761C201.241 22.4013 201.73 22.5304 202.237 22.6642C205.687 23.5753 209.958 24.7027 214.059 26.252C218.738 28.0199 223.414 30.4119 226.477 33.8515C233.636 41.8898 232.153 52.899 228.015 62.7304C223.845 72.6387 216.759 81.9377 211.68 87.197C191.732 107.853 161.549 119.704 135.25 128.442C106.467 138.005 76.4153 139.602 46.6284 141.185C40.9934 141.485 35.3679 141.784 29.7623 142.136C26.0162 142.372 23.423 142.681 21.7445 143.029C21.4991 143.08 21.2786 143.131 21.0813 143.181C21.9357 143.55 23.1174 143.948 24.5584 144.355C31.6106 146.347 43.4168 148.183 47.2527 148.45C71.2293 150.12 95.4108 149.228 119.683 148.333C122.765 148.219 125.848 148.106 128.933 147.997C156.274 147.035 183.689 146.482 210.797 150.049C225.868 152.032 240.853 155.911 255.631 159.737C261.506 161.258 267.349 162.77 273.151 164.152C273.957 164.344 274.455 165.153 274.263 165.958C274.071 166.764 273.262 167.262 272.456 167.07C266.528 165.659 260.611 164.127 254.695 162.595C239.988 158.788 225.283 154.981 210.405 153.023C183.57 149.492 156.379 150.033 129.038 150.995C125.959 151.104 122.877 151.217 119.793 151.331C95.5405 152.226 71.1913 153.125 47.0443 151.443C43.0116 151.162 31.0015 149.292 23.7428 147.242C21.9325 146.73 20.3262 146.183 19.1962 145.611C18.6477 145.333 18.0831 144.987 17.675 144.545C17.2512 144.087 16.7671 143.232 17.1914 142.231C17.5236 141.447 18.2612 141.026 18.7977 140.786C19.409 140.512 20.1964 140.287 21.1347 140.092C23.0221 139.7 25.7821 139.38 29.5741 139.142C35.241 138.786 40.9074 138.484 46.5663 138.182C76.3561 136.595 105.939 135.019 134.304 125.595C160.612 116.854 190.138 105.185 209.522 85.113C214.413 80.0479 221.258 71.0515 225.25 61.5667C229.274 52.005 230.183 42.5235 224.237 35.8468C221.666 32.9606 217.55 30.7777 212.999 29.0585C209.054 27.5683 204.945 26.4829 201.485 25.5688C200.974 25.4339 200.478 25.3027 199.998 25.1745C179.232 19.6263 157.853 17.6296 136.31 16.8246C70.869 14.3793 5.2402 14.9192 -60.3642 15.4588ZM19.7832 143.654C19.7829 143.654 19.7849 143.652 19.7898 143.649C19.7858 143.652 19.7835 143.654 19.7832 143.654Z" fill="white"/>
</svg>
