<svg width="357" height="301" viewBox="0 0 357 301" fill="none" xmlns="http://www.w3.org/2000/svg">
<path fill-rule="evenodd" clip-rule="evenodd" d="M395.973 13.7179C396.128 14.5316 395.595 15.3175 394.782 15.4733C386.008 17.1532 370.107 19.8171 350.79 23.0532C332.59 26.102 311.359 29.6587 290.202 33.3788C268.373 37.2171 246.603 41.2324 228.261 45.0526C209.883 48.8803 195.052 52.4911 187.035 55.5088C184.419 56.4935 181.497 57.5459 178.353 58.6783C167.156 62.7108 153.147 67.7564 140.143 74.36C123.43 82.8474 108.868 93.6801 104.025 107.754C100.591 117.735 104.977 126.623 112.397 134.009C119.816 141.395 130.007 146.981 137.315 150.128C146.08 153.904 155.085 156.658 164.232 158.514C191.729 151.913 219.502 146.596 247.377 141.95C247.711 141.894 248.179 141.815 248.762 141.716C251.822 141.198 258.049 140.144 264.642 139.153C272.443 137.979 280.919 136.866 285.234 136.866C285.872 136.866 286.927 136.96 287.787 137.198C288.171 137.304 288.767 137.501 289.214 137.911C289.465 138.141 289.772 138.533 289.838 139.097C289.905 139.675 289.687 140.15 289.451 140.467C287.656 142.879 284.504 144.97 280.888 146.78C277.228 148.611 272.904 150.245 268.573 151.662C261.7 153.912 254.684 155.657 250.141 156.787C248.966 157.079 247.956 157.33 247.158 157.538C220.132 164.576 191.651 167.01 164.289 161.586C157.097 163.318 149.925 165.139 142.776 167.058C126.469 171.438 94.3257 181.011 77.8592 187.732C75.6478 188.635 69.9392 191.031 64.4051 194.14C61.6365 195.695 58.9497 197.407 56.7777 199.176C54.574 200.971 53.048 202.708 52.3994 204.276C50.9945 207.671 51.6594 210.957 53.756 214.181C55.884 217.454 59.4268 220.545 63.4974 223.304C71.6216 228.809 81.3852 232.683 84.5709 233.881C127.837 250.151 175.777 252.743 221.74 253.796C254.885 254.555 287.988 252.942 321.135 251.327C330.118 250.889 339.103 250.451 348.093 250.06C349.922 249.981 352.568 249.624 355.515 249.201C355.927 249.142 356.344 249.081 356.765 249.02C359.313 248.652 361.983 248.266 364.354 248.019C365.738 247.874 367.048 247.774 368.194 247.753C369.316 247.732 370.381 247.784 371.231 247.993C371.947 248.169 373.225 248.64 373.485 249.999C373.605 250.629 373.438 251.205 373.215 251.655C372.992 252.105 372.661 252.535 372.279 252.944C368.969 256.491 364.387 257.79 359.828 258.473C357.945 258.756 356.004 258.94 354.117 259.12C353.713 259.158 353.311 259.197 352.913 259.235C350.63 259.458 348.448 259.705 346.423 260.138C334.127 262.767 321.761 264.937 309.438 267.1C304.548 267.958 299.664 268.815 294.795 269.699C277.63 272.815 260.593 276.274 243.837 281.323C240.398 282.36 238.08 283.153 236.668 283.78C236.985 283.866 237.346 283.955 237.755 284.048C239.224 284.381 241.135 284.726 243.436 285.142C243.901 285.226 244.382 285.313 244.878 285.403C245.693 285.551 246.234 286.332 246.086 287.147C245.937 287.962 245.157 288.503 244.341 288.355C243.859 288.267 243.387 288.182 242.927 288.099C240.627 287.683 238.632 287.323 237.091 286.973C236.168 286.764 235.349 286.546 234.697 286.303C234.37 286.181 234.049 286.04 233.762 285.871C233.488 285.71 233.158 285.472 232.905 285.121C232.623 284.731 232.447 284.21 232.547 283.625C232.638 283.097 232.924 282.705 233.17 282.446C233.642 281.951 234.357 281.546 235.125 281.186C236.724 280.438 239.309 279.555 242.971 278.451C259.893 273.351 277.064 269.868 294.259 266.747C299.166 265.856 304.072 264.995 308.974 264.135C321.276 261.976 333.557 259.821 345.796 257.204C348.002 256.732 350.332 256.473 352.621 256.25C353.036 256.209 353.449 256.17 353.86 256.131C355.744 255.951 357.588 255.776 359.383 255.507C363.768 254.849 367.491 253.677 370.086 250.897C370.106 250.876 370.125 250.856 370.143 250.836C369.683 250.769 369.053 250.737 368.249 250.752C367.223 250.771 366.008 250.862 364.666 251.002C362.359 251.243 359.757 251.619 357.203 251.988C356.781 252.049 356.359 252.11 355.941 252.17C353.033 252.588 350.23 252.97 348.224 253.057C339.269 253.447 330.307 253.884 321.34 254.321C288.178 255.937 254.934 257.557 221.672 256.795C175.714 255.743 127.309 253.157 83.5149 236.689C80.2811 235.473 70.2435 231.499 61.8145 225.787C57.6085 222.937 53.6868 219.578 51.241 215.817C48.7638 212.007 47.7457 207.676 49.6273 203.129C50.564 200.865 52.5584 198.744 54.8829 196.85C57.239 194.931 60.0882 193.124 62.936 191.524C68.6346 188.323 74.4802 185.871 76.7255 184.955C93.3772 178.158 125.674 168.545 141.998 164.161C147.212 162.761 152.439 161.413 157.675 160.114C150.381 158.311 143.182 155.922 136.128 152.884C128.644 149.66 118.073 143.893 110.281 136.135C102.489 128.378 97.2131 118.331 101.189 106.778C106.444 91.5041 121.992 80.213 138.785 71.6851C151.975 64.9868 166.234 59.8525 177.44 55.8171C180.551 54.6971 183.426 53.6618 185.978 52.7012C194.246 49.5893 209.298 45.9376 227.649 42.1156C246.037 38.286 267.843 34.2643 289.682 30.4241C310.917 26.6904 332.166 23.1311 350.357 20.0839C369.623 16.8566 385.46 14.2037 394.217 12.5268C395.031 12.371 395.817 12.9043 395.973 13.7179ZM370.813 251.008C370.812 251.009 370.799 251.004 370.779 250.99C370.804 251.001 370.814 251.008 370.813 251.008ZM235.342 284.515C235.343 284.515 235.343 284.514 235.344 284.513C235.34 284.518 235.339 284.519 235.342 284.515ZM171.713 159.83C196.419 163.524 221.948 161.003 246.402 154.635C247.236 154.418 248.276 154.159 249.476 153.861C254.027 152.728 260.886 151.022 267.64 148.811C271.902 147.416 276.072 145.836 279.546 144.097C282.273 142.732 284.462 141.323 285.941 139.908C285.674 139.88 285.424 139.866 285.234 139.866C281.189 139.866 272.954 140.936 265.088 142.119C258.527 143.106 252.336 144.154 249.27 144.673C248.682 144.772 248.209 144.853 247.87 144.909C222.333 149.165 196.905 153.982 171.713 159.83Z" fill="white"/>
</svg>
