<svg width="295" height="111" viewBox="0 0 295 111" fill="none" xmlns="http://www.w3.org/2000/svg">
<path fill-rule="evenodd" clip-rule="evenodd" d="M12.8335 1.01394C13.3781 0.921752 13.8943 1.28846 13.9864 1.83299C18.9213 30.9834 37.534 54.4502 51.2794 71.7804C52.9625 73.9025 54.5726 75.9325 56.0757 77.8697C68.2055 93.5025 80.851 102.029 93.9563 106.04C107.079 110.057 120.759 109.577 135.009 107.027C148.187 104.668 160.653 98.0571 172.967 89.6189C181.132 84.0236 189.168 77.6713 197.283 71.2567C201.428 67.9804 205.593 64.6878 209.807 61.4715C237.419 40.395 265.121 22.0674 293.496 5.49304C293.973 5.21448 294.585 5.37526 294.864 5.85216C295.142 6.32905 294.982 6.94146 294.505 7.22001C266.196 23.7556 238.562 42.0379 211.02 63.0613C206.867 66.2317 202.731 69.5006 198.6 72.7661C190.449 79.2082 182.316 85.6368 174.098 91.2687C161.691 99.7705 148.948 106.563 135.361 108.995C120.95 111.575 106.916 112.099 93.3709 107.953C79.809 103.802 66.8351 94.9989 54.4956 79.0957C53.0068 77.177 51.4043 75.1578 49.7231 73.0397C35.9997 55.7488 17.0417 31.8624 12.0145 2.16682C11.9223 1.62229 12.289 1.10612 12.8335 1.01394Z" fill="white"/>
<path fill-rule="evenodd" clip-rule="evenodd" d="M11.4261 1.12029C12.2362 1.2937 12.7523 2.09097 12.5789 2.90104C10.6739 11.8002 8.26024 20.5337 4.87695 28.9939C4.75051 29.3101 4.62544 29.6127 4.50443 29.9055C4.06082 30.9789 3.67181 31.9202 3.47022 32.9118C3.30518 33.7236 2.51327 34.2479 1.70145 34.0829C0.88963 33.9178 0.365318 33.1259 0.530365 32.3141C0.795474 31.0101 1.32909 29.7248 1.78589 28.6246C1.89351 28.3654 1.99686 28.1165 2.09143 27.88C5.39386 19.622 7.76414 11.0612 9.64534 2.27308C9.81875 1.463 10.616 0.946882 11.4261 1.12029Z" fill="white"/>
<path fill-rule="evenodd" clip-rule="evenodd" d="M11.5589 1.22812C12.0175 0.538217 12.9486 0.350718 13.6385 0.80933C17.6075 3.44776 21.9579 5.49131 26.46 7.4631C27.3901 7.87045 28.3285 8.27547 29.2712 8.68233C32.8564 10.2297 36.5034 11.8037 39.988 13.634C40.446 13.8746 40.837 14.0965 41.1903 14.297C42.101 14.8139 42.761 15.1884 43.6709 15.3734C44.4827 15.5385 45.007 16.3304 44.8419 17.1422C44.6769 17.954 43.885 18.4783 43.0732 18.3133C41.6519 18.0243 40.4295 17.3266 39.4077 16.7434C39.1202 16.5793 38.8486 16.4242 38.5929 16.2899C35.2198 14.5181 31.7093 13.0027 28.1378 11.461C27.1813 11.0481 26.2203 10.6332 25.2565 10.2111C20.7287 8.22807 16.1766 6.09891 11.9777 3.30769C11.2878 2.84908 11.1003 1.91802 11.5589 1.22812Z" fill="white"/>
</svg>
